<mxfile host="app.diagrams.net" agent="Mozilla/5.0 (Windows NT 10.0; Win64; x64) AppleWebKit/537.36 (KHTML, like Gecko) Chrome/129.0.0.0 Safari/537.36" version="24.7.16">
  <diagram name="Page-1" id="diYAQbp-npRXhr7Aqa12">
    <mxGraphModel dx="1434" dy="738" grid="1" gridSize="10" guides="1" tooltips="1" connect="1" arrows="1" fold="1" page="1" pageScale="1" pageWidth="850" pageHeight="1100" math="0" shadow="0">
      <root>
        <mxCell id="0" />
        <mxCell id="1" parent="0" />
        <mxCell id="yVZragank8YAukpn6mW1-1" value="order" style="swimlane;fontStyle=0;childLayout=stackLayout;horizontal=1;startSize=26;horizontalStack=0;resizeParent=1;resizeParentMax=0;resizeLast=0;collapsible=1;marginBottom=0;align=center;fontSize=14;" vertex="1" parent="1">
          <mxGeometry x="330" y="370" width="160" height="156" as="geometry" />
        </mxCell>
        <mxCell id="yVZragank8YAukpn6mW1-2" value="&lt;b&gt;OrderID&lt;/b&gt;" style="text;strokeColor=none;fillColor=none;spacingLeft=4;spacingRight=4;overflow=hidden;rotatable=0;points=[[0,0.5],[1,0.5]];portConstraint=eastwest;fontSize=12;whiteSpace=wrap;html=1;align=left;" vertex="1" parent="yVZragank8YAukpn6mW1-1">
          <mxGeometry y="26" width="160" height="30" as="geometry" />
        </mxCell>
        <mxCell id="yVZragank8YAukpn6mW1-3" value="&lt;i&gt;BookID&lt;/i&gt;" style="text;strokeColor=none;fillColor=none;spacingLeft=4;spacingRight=4;overflow=hidden;rotatable=0;points=[[0,0.5],[1,0.5]];portConstraint=eastwest;fontSize=12;whiteSpace=wrap;html=1;align=left;" vertex="1" parent="yVZragank8YAukpn6mW1-1">
          <mxGeometry y="56" width="160" height="30" as="geometry" />
        </mxCell>
        <mxCell id="yVZragank8YAukpn6mW1-36" value="&lt;i&gt;&amp;nbsp;OrderDate&lt;/i&gt;" style="text;whiteSpace=wrap;html=1;align=left;" vertex="1" parent="yVZragank8YAukpn6mW1-1">
          <mxGeometry y="86" width="160" height="40" as="geometry" />
        </mxCell>
        <mxCell id="yVZragank8YAukpn6mW1-4" value="TotalAmount" style="text;strokeColor=none;fillColor=none;spacingLeft=4;spacingRight=4;overflow=hidden;rotatable=0;points=[[0,0.5],[1,0.5]];portConstraint=eastwest;fontSize=12;whiteSpace=wrap;html=1;align=left;" vertex="1" parent="yVZragank8YAukpn6mW1-1">
          <mxGeometry y="126" width="160" height="30" as="geometry" />
        </mxCell>
        <mxCell id="yVZragank8YAukpn6mW1-5" value="sales" style="swimlane;fontStyle=0;childLayout=stackLayout;horizontal=1;startSize=26;horizontalStack=0;resizeParent=1;resizeParentMax=0;resizeLast=0;collapsible=1;marginBottom=0;align=center;fontSize=14;" vertex="1" parent="1">
          <mxGeometry x="380" y="560" width="160" height="156" as="geometry" />
        </mxCell>
        <mxCell id="yVZragank8YAukpn6mW1-6" value="&lt;b&gt;SalesID&lt;/b&gt;" style="text;strokeColor=none;fillColor=none;spacingLeft=4;spacingRight=4;overflow=hidden;rotatable=0;points=[[0,0.5],[1,0.5]];portConstraint=eastwest;fontSize=12;whiteSpace=wrap;html=1;align=left;" vertex="1" parent="yVZragank8YAukpn6mW1-5">
          <mxGeometry y="26" width="160" height="30" as="geometry" />
        </mxCell>
        <mxCell id="yVZragank8YAukpn6mW1-7" value="&lt;i&gt;BookID&lt;/i&gt;" style="text;strokeColor=none;fillColor=none;spacingLeft=4;spacingRight=4;overflow=hidden;rotatable=0;points=[[0,0.5],[1,0.5]];portConstraint=eastwest;fontSize=12;whiteSpace=wrap;html=1;align=left;" vertex="1" parent="yVZragank8YAukpn6mW1-5">
          <mxGeometry y="56" width="160" height="30" as="geometry" />
        </mxCell>
        <mxCell id="yVZragank8YAukpn6mW1-8" value="&lt;i&gt;OrderID&lt;/i&gt;" style="text;strokeColor=none;fillColor=none;spacingLeft=4;spacingRight=4;overflow=hidden;rotatable=0;points=[[0,0.5],[1,0.5]];portConstraint=eastwest;fontSize=12;whiteSpace=wrap;html=1;align=left;" vertex="1" parent="yVZragank8YAukpn6mW1-5">
          <mxGeometry y="86" width="160" height="30" as="geometry" />
        </mxCell>
        <mxCell id="yVZragank8YAukpn6mW1-43" value="&lt;span style=&quot;color: rgb(0, 0, 0); font-family: Helvetica; font-size: 12px; font-style: normal; font-variant-ligatures: normal; font-variant-caps: normal; font-weight: 400; letter-spacing: normal; orphans: 2; text-indent: 0px; text-transform: none; widows: 2; word-spacing: 0px; -webkit-text-stroke-width: 0px; white-space: normal; background-color: rgb(251, 251, 251); text-decoration-thickness: initial; text-decoration-style: initial; text-decoration-color: initial; float: none; display: inline !important;&quot;&gt;Quantity&lt;/span&gt;" style="text;whiteSpace=wrap;html=1;align=left;" vertex="1" parent="yVZragank8YAukpn6mW1-5">
          <mxGeometry y="116" width="160" height="40" as="geometry" />
        </mxCell>
        <mxCell id="yVZragank8YAukpn6mW1-14" value="customer" style="swimlane;fontStyle=0;childLayout=stackLayout;horizontal=1;startSize=26;horizontalStack=0;resizeParent=1;resizeParentMax=0;resizeLast=0;collapsible=1;marginBottom=0;align=center;fontSize=14;" vertex="1" parent="1">
          <mxGeometry x="630" y="80" width="160" height="196" as="geometry" />
        </mxCell>
        <mxCell id="yVZragank8YAukpn6mW1-15" value="&lt;b&gt;CustomerID&lt;/b&gt;" style="text;strokeColor=none;fillColor=none;spacingLeft=4;spacingRight=4;overflow=hidden;rotatable=0;points=[[0,0.5],[1,0.5]];portConstraint=eastwest;fontSize=12;whiteSpace=wrap;html=1;align=left;" vertex="1" parent="yVZragank8YAukpn6mW1-14">
          <mxGeometry y="26" width="160" height="30" as="geometry" />
        </mxCell>
        <mxCell id="yVZragank8YAukpn6mW1-16" value="&lt;i&gt;OrderID&lt;/i&gt;" style="text;strokeColor=none;fillColor=none;spacingLeft=4;spacingRight=4;overflow=hidden;rotatable=0;points=[[0,0.5],[1,0.5]];portConstraint=eastwest;fontSize=12;whiteSpace=wrap;html=1;align=left;" vertex="1" parent="yVZragank8YAukpn6mW1-14">
          <mxGeometry y="56" width="160" height="30" as="geometry" />
        </mxCell>
        <mxCell id="yVZragank8YAukpn6mW1-17" value="FirstName&lt;div&gt;&lt;br&gt;&lt;/div&gt;" style="text;strokeColor=none;fillColor=none;spacingLeft=4;spacingRight=4;overflow=hidden;rotatable=0;points=[[0,0.5],[1,0.5]];portConstraint=eastwest;fontSize=12;whiteSpace=wrap;html=1;align=left;" vertex="1" parent="yVZragank8YAukpn6mW1-14">
          <mxGeometry y="86" width="160" height="30" as="geometry" />
        </mxCell>
        <mxCell id="yVZragank8YAukpn6mW1-47" value="&amp;nbsp;LastName" style="text;whiteSpace=wrap;html=1;align=left;" vertex="1" parent="yVZragank8YAukpn6mW1-14">
          <mxGeometry y="116" width="160" height="40" as="geometry" />
        </mxCell>
        <mxCell id="yVZragank8YAukpn6mW1-49" value="&amp;nbsp;PhoneNumber" style="text;whiteSpace=wrap;html=1;align=left;" vertex="1" parent="yVZragank8YAukpn6mW1-14">
          <mxGeometry y="156" width="160" height="40" as="geometry" />
        </mxCell>
        <mxCell id="yVZragank8YAukpn6mW1-18" value="book" style="swimlane;fontStyle=0;childLayout=stackLayout;horizontal=1;startSize=26;horizontalStack=0;resizeParent=1;resizeParentMax=0;resizeLast=0;collapsible=1;marginBottom=0;align=center;fontSize=14;" vertex="1" parent="1">
          <mxGeometry x="60" y="432" width="160" height="236" as="geometry" />
        </mxCell>
        <mxCell id="yVZragank8YAukpn6mW1-19" value="&lt;b&gt;BookID&lt;/b&gt;" style="text;strokeColor=none;fillColor=none;spacingLeft=4;spacingRight=4;overflow=hidden;rotatable=0;points=[[0,0.5],[1,0.5]];portConstraint=eastwest;fontSize=12;whiteSpace=wrap;html=1;align=left;" vertex="1" parent="yVZragank8YAukpn6mW1-18">
          <mxGeometry y="26" width="160" height="30" as="geometry" />
        </mxCell>
        <mxCell id="yVZragank8YAukpn6mW1-20" value="Title" style="text;strokeColor=none;fillColor=none;spacingLeft=4;spacingRight=4;overflow=hidden;rotatable=0;points=[[0,0.5],[1,0.5]];portConstraint=eastwest;fontSize=12;whiteSpace=wrap;html=1;align=left;" vertex="1" parent="yVZragank8YAukpn6mW1-18">
          <mxGeometry y="56" width="160" height="30" as="geometry" />
        </mxCell>
        <mxCell id="yVZragank8YAukpn6mW1-37" value="&lt;div&gt;&amp;nbsp;ISBN&lt;/div&gt;" style="text;whiteSpace=wrap;html=1;align=left;" vertex="1" parent="yVZragank8YAukpn6mW1-18">
          <mxGeometry y="86" width="160" height="40" as="geometry" />
        </mxCell>
        <mxCell id="yVZragank8YAukpn6mW1-21" value="Genre" style="text;strokeColor=none;fillColor=none;spacingLeft=4;spacingRight=4;overflow=hidden;rotatable=0;points=[[0,0.5],[1,0.5]];portConstraint=eastwest;fontSize=12;whiteSpace=wrap;html=1;align=left;" vertex="1" parent="yVZragank8YAukpn6mW1-18">
          <mxGeometry y="126" width="160" height="30" as="geometry" />
        </mxCell>
        <mxCell id="yVZragank8YAukpn6mW1-60" value="&amp;nbsp;Price" style="text;whiteSpace=wrap;html=1;" vertex="1" parent="yVZragank8YAukpn6mW1-18">
          <mxGeometry y="156" width="160" height="40" as="geometry" />
        </mxCell>
        <mxCell id="yVZragank8YAukpn6mW1-61" value="&amp;nbsp;Author" style="text;whiteSpace=wrap;html=1;" vertex="1" parent="yVZragank8YAukpn6mW1-18">
          <mxGeometry y="196" width="160" height="40" as="geometry" />
        </mxCell>
        <mxCell id="yVZragank8YAukpn6mW1-22" value="&lt;b&gt;&lt;font style=&quot;font-size: 17px;&quot;&gt;Question 1&lt;/font&gt;&lt;/b&gt;" style="text;strokeColor=none;align=left;fillColor=none;html=1;verticalAlign=middle;whiteSpace=wrap;rounded=0;" vertex="1" parent="1">
          <mxGeometry y="40" width="450" height="30" as="geometry" />
        </mxCell>
        <mxCell id="yVZragank8YAukpn6mW1-23" value="&lt;b&gt;&lt;font style=&quot;font-size: 17px;&quot;&gt;Question 2&lt;/font&gt;&lt;/b&gt;" style="text;strokeColor=none;align=left;fillColor=none;html=1;verticalAlign=middle;whiteSpace=wrap;rounded=0;" vertex="1" parent="1">
          <mxGeometry x="20" y="730" width="450" height="30" as="geometry" />
        </mxCell>
        <mxCell id="yVZragank8YAukpn6mW1-24" value="Date" style="swimlane;fontStyle=0;childLayout=stackLayout;horizontal=1;startSize=30;horizontalStack=0;resizeParent=1;resizeParentMax=0;resizeLast=0;collapsible=1;marginBottom=0;whiteSpace=wrap;html=1;align=center;" vertex="1" parent="1">
          <mxGeometry x="700" y="320" width="140" height="240" as="geometry" />
        </mxCell>
        <mxCell id="yVZragank8YAukpn6mW1-25" value="&lt;b&gt;DateID&lt;/b&gt;" style="text;strokeColor=none;fillColor=none;align=left;verticalAlign=middle;spacingLeft=4;spacingRight=4;overflow=hidden;points=[[0,0.5],[1,0.5]];portConstraint=eastwest;rotatable=0;whiteSpace=wrap;html=1;" vertex="1" parent="yVZragank8YAukpn6mW1-24">
          <mxGeometry y="30" width="140" height="30" as="geometry" />
        </mxCell>
        <mxCell id="yVZragank8YAukpn6mW1-26" value="&lt;i&gt;OrderDate&lt;/i&gt;" style="text;strokeColor=none;fillColor=none;align=left;verticalAlign=middle;spacingLeft=4;spacingRight=4;overflow=hidden;points=[[0,0.5],[1,0.5]];portConstraint=eastwest;rotatable=0;whiteSpace=wrap;html=1;" vertex="1" parent="yVZragank8YAukpn6mW1-24">
          <mxGeometry y="60" width="140" height="30" as="geometry" />
        </mxCell>
        <mxCell id="yVZragank8YAukpn6mW1-38" value="&amp;nbsp;Day" style="text;whiteSpace=wrap;html=1;align=left;" vertex="1" parent="yVZragank8YAukpn6mW1-24">
          <mxGeometry y="90" width="140" height="40" as="geometry" />
        </mxCell>
        <mxCell id="yVZragank8YAukpn6mW1-27" value="Month" style="text;strokeColor=none;fillColor=none;align=left;verticalAlign=middle;spacingLeft=4;spacingRight=4;overflow=hidden;points=[[0,0.5],[1,0.5]];portConstraint=eastwest;rotatable=0;whiteSpace=wrap;html=1;" vertex="1" parent="yVZragank8YAukpn6mW1-24">
          <mxGeometry y="130" width="140" height="30" as="geometry" />
        </mxCell>
        <mxCell id="yVZragank8YAukpn6mW1-63" value="&lt;span style=&quot;color: rgb(0, 0, 0); font-family: Helvetica; font-size: 12px; font-style: normal; font-variant-ligatures: normal; font-variant-caps: normal; font-weight: 400; letter-spacing: normal; orphans: 2; text-align: left; text-indent: 0px; text-transform: none; widows: 2; word-spacing: 0px; -webkit-text-stroke-width: 0px; white-space: normal; background-color: rgb(251, 251, 251); text-decoration-thickness: initial; text-decoration-style: initial; text-decoration-color: initial; display: inline !important; float: none;&quot;&gt;Month&lt;/span&gt;" style="text;whiteSpace=wrap;html=1;" vertex="1" parent="yVZragank8YAukpn6mW1-24">
          <mxGeometry y="160" width="140" height="40" as="geometry" />
        </mxCell>
        <mxCell id="yVZragank8YAukpn6mW1-62" value="&amp;nbsp;Year" style="text;whiteSpace=wrap;html=1;" vertex="1" parent="yVZragank8YAukpn6mW1-24">
          <mxGeometry y="200" width="140" height="40" as="geometry" />
        </mxCell>
        <mxCell id="yVZragank8YAukpn6mW1-52" value="Customer_Address" style="swimlane;fontStyle=0;childLayout=stackLayout;horizontal=1;startSize=26;horizontalStack=0;resizeParent=1;resizeParentMax=0;resizeLast=0;collapsible=1;marginBottom=0;align=center;fontSize=14;" vertex="1" parent="1">
          <mxGeometry x="300" y="80" width="160" height="276" as="geometry" />
        </mxCell>
        <mxCell id="yVZragank8YAukpn6mW1-53" value="&lt;b&gt;AddressID&lt;/b&gt;" style="text;strokeColor=none;fillColor=none;spacingLeft=4;spacingRight=4;overflow=hidden;rotatable=0;points=[[0,0.5],[1,0.5]];portConstraint=eastwest;fontSize=12;whiteSpace=wrap;html=1;" vertex="1" parent="yVZragank8YAukpn6mW1-52">
          <mxGeometry y="26" width="160" height="30" as="geometry" />
        </mxCell>
        <mxCell id="yVZragank8YAukpn6mW1-54" value="&lt;i&gt;CustomerID&lt;/i&gt;" style="text;strokeColor=none;fillColor=none;spacingLeft=4;spacingRight=4;overflow=hidden;rotatable=0;points=[[0,0.5],[1,0.5]];portConstraint=eastwest;fontSize=12;whiteSpace=wrap;html=1;" vertex="1" parent="yVZragank8YAukpn6mW1-52">
          <mxGeometry y="56" width="160" height="30" as="geometry" />
        </mxCell>
        <mxCell id="yVZragank8YAukpn6mW1-55" value="Street" style="text;strokeColor=none;fillColor=none;spacingLeft=4;spacingRight=4;overflow=hidden;rotatable=0;points=[[0,0.5],[1,0.5]];portConstraint=eastwest;fontSize=12;whiteSpace=wrap;html=1;" vertex="1" parent="yVZragank8YAukpn6mW1-52">
          <mxGeometry y="86" width="160" height="30" as="geometry" />
        </mxCell>
        <mxCell id="yVZragank8YAukpn6mW1-56" value="&amp;nbsp;City" style="text;whiteSpace=wrap;html=1;" vertex="1" parent="yVZragank8YAukpn6mW1-52">
          <mxGeometry y="116" width="160" height="40" as="geometry" />
        </mxCell>
        <mxCell id="yVZragank8YAukpn6mW1-57" value="&amp;nbsp;Province" style="text;whiteSpace=wrap;html=1;" vertex="1" parent="yVZragank8YAukpn6mW1-52">
          <mxGeometry y="156" width="160" height="40" as="geometry" />
        </mxCell>
        <mxCell id="yVZragank8YAukpn6mW1-58" value="&lt;span style=&quot;color: rgb(0, 0, 0); font-family: Helvetica; font-size: 12px; font-style: normal; font-variant-ligatures: normal; font-variant-caps: normal; font-weight: 400; letter-spacing: normal; orphans: 2; text-align: left; text-indent: 0px; text-transform: none; widows: 2; word-spacing: 0px; -webkit-text-stroke-width: 0px; white-space: normal; background-color: rgb(251, 251, 251); text-decoration-thickness: initial; text-decoration-style: initial; text-decoration-color: initial; display: inline !important; float: none;&quot;&gt;&amp;nbsp;Country&lt;/span&gt;" style="text;whiteSpace=wrap;html=1;" vertex="1" parent="yVZragank8YAukpn6mW1-52">
          <mxGeometry y="196" width="160" height="40" as="geometry" />
        </mxCell>
        <mxCell id="yVZragank8YAukpn6mW1-59" value="&amp;nbsp;ZipCode" style="text;whiteSpace=wrap;html=1;" vertex="1" parent="yVZragank8YAukpn6mW1-52">
          <mxGeometry y="236" width="160" height="40" as="geometry" />
        </mxCell>
        <mxCell id="yVZragank8YAukpn6mW1-75" value="" style="edgeStyle=entityRelationEdgeStyle;fontSize=12;html=1;endArrow=ERoneToMany;rounded=0;entryX=1.019;entryY=0.051;entryDx=0;entryDy=0;exitX=0.6;exitY=1;exitDx=0;exitDy=0;exitPerimeter=0;entryPerimeter=0;" edge="1" parent="1" source="yVZragank8YAukpn6mW1-49" target="yVZragank8YAukpn6mW1-1">
          <mxGeometry width="100" height="100" relative="1" as="geometry">
            <mxPoint x="790" y="230" as="sourcePoint" />
            <mxPoint x="610" y="455" as="targetPoint" />
          </mxGeometry>
        </mxCell>
        <mxCell id="yVZragank8YAukpn6mW1-77" value="" style="edgeStyle=entityRelationEdgeStyle;fontSize=12;html=1;endArrow=ERoneToMany;rounded=0;exitX=-0.057;exitY=-0.233;exitDx=0;exitDy=0;exitPerimeter=0;" edge="1" parent="1" source="yVZragank8YAukpn6mW1-26" target="yVZragank8YAukpn6mW1-2">
          <mxGeometry width="100" height="100" relative="1" as="geometry">
            <mxPoint x="370" y="620" as="sourcePoint" />
            <mxPoint x="600" y="520" as="targetPoint" />
          </mxGeometry>
        </mxCell>
        <mxCell id="yVZragank8YAukpn6mW1-78" value="" style="edgeStyle=entityRelationEdgeStyle;fontSize=12;html=1;endArrow=ERoneToMany;rounded=0;exitX=1;exitY=0.5;exitDx=0;exitDy=0;" edge="1" parent="1" source="yVZragank8YAukpn6mW1-37" target="yVZragank8YAukpn6mW1-7">
          <mxGeometry width="100" height="100" relative="1" as="geometry">
            <mxPoint x="210" y="640" as="sourcePoint" />
            <mxPoint x="470" y="520" as="targetPoint" />
          </mxGeometry>
        </mxCell>
        <mxCell id="yVZragank8YAukpn6mW1-80" value="" style="edgeStyle=entityRelationEdgeStyle;fontSize=12;html=1;endArrow=ERoneToMany;rounded=0;entryX=1;entryY=0.5;entryDx=0;entryDy=0;exitX=0;exitY=0.75;exitDx=0;exitDy=0;" edge="1" parent="1" source="yVZragank8YAukpn6mW1-47" target="yVZragank8YAukpn6mW1-56">
          <mxGeometry width="100" height="100" relative="1" as="geometry">
            <mxPoint x="620" y="160" as="sourcePoint" />
            <mxPoint x="480" y="430" as="targetPoint" />
            <Array as="points">
              <mxPoint x="580" y="200" />
              <mxPoint x="510" y="400" />
              <mxPoint x="520" y="390" />
            </Array>
          </mxGeometry>
        </mxCell>
        <mxCell id="yVZragank8YAukpn6mW1-81" value="" style="edgeStyle=entityRelationEdgeStyle;fontSize=12;html=1;endArrow=ERoneToMany;rounded=0;curved=0;" edge="1" parent="1" source="yVZragank8YAukpn6mW1-1" target="yVZragank8YAukpn6mW1-7">
          <mxGeometry width="100" height="100" relative="1" as="geometry">
            <mxPoint x="430" y="480" as="sourcePoint" />
            <mxPoint x="570" y="660" as="targetPoint" />
            <Array as="points">
              <mxPoint x="570" y="530" />
            </Array>
          </mxGeometry>
        </mxCell>
        <mxCell id="yVZragank8YAukpn6mW1-92" value="employee" style="swimlane;fontStyle=0;childLayout=stackLayout;horizontal=1;startSize=26;horizontalStack=0;resizeParent=1;resizeParentMax=0;resizeLast=0;collapsible=1;marginBottom=0;align=center;fontSize=14;" vertex="1" parent="1">
          <mxGeometry x="60" y="90" width="160" height="316" as="geometry" />
        </mxCell>
        <mxCell id="yVZragank8YAukpn6mW1-93" value="&lt;b&gt;employeeID&lt;/b&gt;" style="text;strokeColor=none;fillColor=none;spacingLeft=4;spacingRight=4;overflow=hidden;rotatable=0;points=[[0,0.5],[1,0.5]];portConstraint=eastwest;fontSize=12;whiteSpace=wrap;html=1;align=left;" vertex="1" parent="yVZragank8YAukpn6mW1-92">
          <mxGeometry y="26" width="160" height="30" as="geometry" />
        </mxCell>
        <mxCell id="yVZragank8YAukpn6mW1-94" value="FirstName&lt;span style=&quot;white-space: pre;&quot;&gt;&#x9;&lt;/span&gt;&lt;span style=&quot;white-space: pre;&quot;&gt;&#x9;&lt;/span&gt;" style="text;strokeColor=none;fillColor=none;spacingLeft=4;spacingRight=4;overflow=hidden;rotatable=0;points=[[0,0.5],[1,0.5]];portConstraint=eastwest;fontSize=12;whiteSpace=wrap;html=1;align=left;" vertex="1" parent="yVZragank8YAukpn6mW1-92">
          <mxGeometry y="56" width="160" height="30" as="geometry" />
        </mxCell>
        <mxCell id="yVZragank8YAukpn6mW1-95" value="LastName" style="text;strokeColor=none;fillColor=none;spacingLeft=4;spacingRight=4;overflow=hidden;rotatable=0;points=[[0,0.5],[1,0.5]];portConstraint=eastwest;fontSize=12;whiteSpace=wrap;html=1;align=left;" vertex="1" parent="yVZragank8YAukpn6mW1-92">
          <mxGeometry y="86" width="160" height="30" as="geometry" />
        </mxCell>
        <mxCell id="yVZragank8YAukpn6mW1-96" value="&lt;span style=&quot;color: rgb(0, 0, 0); font-family: Helvetica; font-size: 12px; font-style: normal; font-variant-ligatures: normal; font-variant-caps: normal; font-weight: 400; letter-spacing: normal; orphans: 2; text-indent: 0px; text-transform: none; widows: 2; word-spacing: 0px; -webkit-text-stroke-width: 0px; white-space: normal; background-color: rgb(251, 251, 251); text-decoration-thickness: initial; text-decoration-style: initial; text-decoration-color: initial; float: none; display: inline !important;&quot;&gt;&amp;nbsp;HireDate&lt;/span&gt;" style="text;whiteSpace=wrap;html=1;align=left;" vertex="1" parent="yVZragank8YAukpn6mW1-92">
          <mxGeometry y="116" width="160" height="40" as="geometry" />
        </mxCell>
        <mxCell id="yVZragank8YAukpn6mW1-97" value="&amp;nbsp;Address" style="text;whiteSpace=wrap;html=1;align=left;" vertex="1" parent="yVZragank8YAukpn6mW1-92">
          <mxGeometry y="156" width="160" height="40" as="geometry" />
        </mxCell>
        <mxCell id="yVZragank8YAukpn6mW1-98" value="&lt;span style=&quot;color: rgb(0, 0, 0); font-family: Helvetica; font-size: 12px; font-style: normal; font-variant-ligatures: normal; font-variant-caps: normal; font-weight: 400; letter-spacing: normal; orphans: 2; text-indent: 0px; text-transform: none; widows: 2; word-spacing: 0px; -webkit-text-stroke-width: 0px; white-space: normal; background-color: rgb(251, 251, 251); text-decoration-thickness: initial; text-decoration-style: initial; text-decoration-color: initial; float: none; display: inline !important;&quot;&gt;&amp;nbsp;Phone&lt;/span&gt;" style="text;whiteSpace=wrap;html=1;align=left;" vertex="1" parent="yVZragank8YAukpn6mW1-92">
          <mxGeometry y="196" width="160" height="40" as="geometry" />
        </mxCell>
        <mxCell id="yVZragank8YAukpn6mW1-99" value="&lt;span style=&quot;color: rgb(0, 0, 0); font-family: Helvetica; font-size: 12px; font-style: normal; font-variant-ligatures: normal; font-variant-caps: normal; font-weight: 400; letter-spacing: normal; orphans: 2; text-indent: 0px; text-transform: none; widows: 2; word-spacing: 0px; -webkit-text-stroke-width: 0px; white-space: normal; background-color: rgb(251, 251, 251); text-decoration-thickness: initial; text-decoration-style: initial; text-decoration-color: initial; float: none; display: inline !important;&quot;&gt;&amp;nbsp;Emai&lt;/span&gt;" style="text;whiteSpace=wrap;html=1;align=left;" vertex="1" parent="yVZragank8YAukpn6mW1-92">
          <mxGeometry y="236" width="160" height="40" as="geometry" />
        </mxCell>
        <mxCell id="yVZragank8YAukpn6mW1-100" value="&lt;span style=&quot;color: rgb(0, 0, 0); font-family: Helvetica; font-size: 12px; font-style: normal; font-variant-ligatures: normal; font-variant-caps: normal; font-weight: 400; letter-spacing: normal; orphans: 2; text-indent: 0px; text-transform: none; widows: 2; word-spacing: 0px; -webkit-text-stroke-width: 0px; white-space: normal; background-color: rgb(251, 251, 251); text-decoration-thickness: initial; text-decoration-style: initial; text-decoration-color: initial; float: none; display: inline !important;&quot;&gt;&amp;nbsp;JobTitle&lt;/span&gt;" style="text;whiteSpace=wrap;html=1;align=left;" vertex="1" parent="yVZragank8YAukpn6mW1-92">
          <mxGeometry y="276" width="160" height="40" as="geometry" />
        </mxCell>
        <mxCell id="yVZragank8YAukpn6mW1-101" value="employee" style="swimlane;fontStyle=0;childLayout=stackLayout;horizontal=1;startSize=26;horizontalStack=0;resizeParent=1;resizeParentMax=0;resizeLast=0;collapsible=1;marginBottom=0;align=center;fontSize=14;" vertex="1" parent="1">
          <mxGeometry x="40" y="780" width="160" height="356" as="geometry" />
        </mxCell>
        <mxCell id="yVZragank8YAukpn6mW1-102" value="&lt;b&gt;employeeID&lt;/b&gt;" style="text;strokeColor=none;fillColor=none;spacingLeft=4;spacingRight=4;overflow=hidden;rotatable=0;points=[[0,0.5],[1,0.5]];portConstraint=eastwest;fontSize=12;whiteSpace=wrap;html=1;align=left;" vertex="1" parent="yVZragank8YAukpn6mW1-101">
          <mxGeometry y="26" width="160" height="30" as="geometry" />
        </mxCell>
        <mxCell id="yVZragank8YAukpn6mW1-103" value="FirstName&lt;span style=&quot;white-space: pre;&quot;&gt;&#x9;&lt;/span&gt;&lt;span style=&quot;white-space: pre;&quot;&gt;&#x9;&lt;/span&gt;" style="text;strokeColor=none;fillColor=none;spacingLeft=4;spacingRight=4;overflow=hidden;rotatable=0;points=[[0,0.5],[1,0.5]];portConstraint=eastwest;fontSize=12;whiteSpace=wrap;html=1;align=left;" vertex="1" parent="yVZragank8YAukpn6mW1-101">
          <mxGeometry y="56" width="160" height="30" as="geometry" />
        </mxCell>
        <mxCell id="yVZragank8YAukpn6mW1-104" value="LastName" style="text;strokeColor=none;fillColor=none;spacingLeft=4;spacingRight=4;overflow=hidden;rotatable=0;points=[[0,0.5],[1,0.5]];portConstraint=eastwest;fontSize=12;whiteSpace=wrap;html=1;align=left;" vertex="1" parent="yVZragank8YAukpn6mW1-101">
          <mxGeometry y="86" width="160" height="30" as="geometry" />
        </mxCell>
        <mxCell id="yVZragank8YAukpn6mW1-105" value="&lt;span style=&quot;color: rgb(0, 0, 0); font-family: Helvetica; font-size: 12px; font-style: normal; font-variant-ligatures: normal; font-variant-caps: normal; font-weight: 400; letter-spacing: normal; orphans: 2; text-indent: 0px; text-transform: none; widows: 2; word-spacing: 0px; -webkit-text-stroke-width: 0px; white-space: normal; background-color: rgb(251, 251, 251); text-decoration-thickness: initial; text-decoration-style: initial; text-decoration-color: initial; float: none; display: inline !important;&quot;&gt;&amp;nbsp;HireDate&lt;/span&gt;" style="text;whiteSpace=wrap;html=1;align=left;" vertex="1" parent="yVZragank8YAukpn6mW1-101">
          <mxGeometry y="116" width="160" height="40" as="geometry" />
        </mxCell>
        <mxCell id="yVZragank8YAukpn6mW1-106" value="&amp;nbsp;Address" style="text;whiteSpace=wrap;html=1;align=left;" vertex="1" parent="yVZragank8YAukpn6mW1-101">
          <mxGeometry y="156" width="160" height="40" as="geometry" />
        </mxCell>
        <mxCell id="yVZragank8YAukpn6mW1-107" value="&lt;span style=&quot;color: rgb(0, 0, 0); font-family: Helvetica; font-size: 12px; font-style: normal; font-variant-ligatures: normal; font-variant-caps: normal; font-weight: 400; letter-spacing: normal; orphans: 2; text-indent: 0px; text-transform: none; widows: 2; word-spacing: 0px; -webkit-text-stroke-width: 0px; white-space: normal; background-color: rgb(251, 251, 251); text-decoration-thickness: initial; text-decoration-style: initial; text-decoration-color: initial; float: none; display: inline !important;&quot;&gt;&amp;nbsp;Phone&lt;/span&gt;" style="text;whiteSpace=wrap;html=1;align=left;" vertex="1" parent="yVZragank8YAukpn6mW1-101">
          <mxGeometry y="196" width="160" height="40" as="geometry" />
        </mxCell>
        <mxCell id="yVZragank8YAukpn6mW1-108" value="&lt;span style=&quot;color: rgb(0, 0, 0); font-family: Helvetica; font-size: 12px; font-style: normal; font-variant-ligatures: normal; font-variant-caps: normal; font-weight: 400; letter-spacing: normal; orphans: 2; text-indent: 0px; text-transform: none; widows: 2; word-spacing: 0px; -webkit-text-stroke-width: 0px; white-space: normal; background-color: rgb(251, 251, 251); text-decoration-thickness: initial; text-decoration-style: initial; text-decoration-color: initial; float: none; display: inline !important;&quot;&gt;&amp;nbsp;Emai&lt;/span&gt;" style="text;whiteSpace=wrap;html=1;align=left;" vertex="1" parent="yVZragank8YAukpn6mW1-101">
          <mxGeometry y="236" width="160" height="40" as="geometry" />
        </mxCell>
        <mxCell id="yVZragank8YAukpn6mW1-109" value="&lt;span style=&quot;color: rgb(0, 0, 0); font-family: Helvetica; font-size: 12px; font-style: normal; font-variant-ligatures: normal; font-variant-caps: normal; font-weight: 400; letter-spacing: normal; orphans: 2; text-indent: 0px; text-transform: none; widows: 2; word-spacing: 0px; -webkit-text-stroke-width: 0px; white-space: normal; background-color: rgb(251, 251, 251); text-decoration-thickness: initial; text-decoration-style: initial; text-decoration-color: initial; float: none; display: inline !important;&quot;&gt;&amp;nbsp;JobTitle&lt;/span&gt;" style="text;whiteSpace=wrap;html=1;align=left;" vertex="1" parent="yVZragank8YAukpn6mW1-101">
          <mxGeometry y="276" width="160" height="40" as="geometry" />
        </mxCell>
        <mxCell id="yVZragank8YAukpn6mW1-115" value="&lt;i&gt;ShiftID&lt;/i&gt;" style="text;whiteSpace=wrap;html=1;" vertex="1" parent="yVZragank8YAukpn6mW1-101">
          <mxGeometry y="316" width="160" height="40" as="geometry" />
        </mxCell>
        <mxCell id="yVZragank8YAukpn6mW1-110" value="Shift" style="swimlane;fontStyle=0;childLayout=stackLayout;horizontal=1;startSize=26;horizontalStack=0;resizeParent=1;resizeParentMax=0;resizeLast=0;collapsible=1;marginBottom=0;align=center;fontSize=14;" vertex="1" parent="1">
          <mxGeometry x="480" y="790" width="160" height="146" as="geometry" />
        </mxCell>
        <mxCell id="yVZragank8YAukpn6mW1-111" value="&lt;b&gt;ShiftID&lt;/b&gt;" style="text;strokeColor=none;fillColor=none;spacingLeft=4;spacingRight=4;overflow=hidden;rotatable=0;points=[[0,0.5],[1,0.5]];portConstraint=eastwest;fontSize=12;whiteSpace=wrap;html=1;" vertex="1" parent="yVZragank8YAukpn6mW1-110">
          <mxGeometry y="26" width="160" height="30" as="geometry" />
        </mxCell>
        <mxCell id="yVZragank8YAukpn6mW1-112" value="ShiftTitle" style="text;strokeColor=none;fillColor=none;spacingLeft=4;spacingRight=4;overflow=hidden;rotatable=0;points=[[0,0.5],[1,0.5]];portConstraint=eastwest;fontSize=12;whiteSpace=wrap;html=1;" vertex="1" parent="yVZragank8YAukpn6mW1-110">
          <mxGeometry y="56" width="160" height="30" as="geometry" />
        </mxCell>
        <mxCell id="yVZragank8YAukpn6mW1-113" value="StartTime" style="text;strokeColor=none;fillColor=none;spacingLeft=4;spacingRight=4;overflow=hidden;rotatable=0;points=[[0,0.5],[1,0.5]];portConstraint=eastwest;fontSize=12;whiteSpace=wrap;html=1;" vertex="1" parent="yVZragank8YAukpn6mW1-110">
          <mxGeometry y="86" width="160" height="30" as="geometry" />
        </mxCell>
        <mxCell id="yVZragank8YAukpn6mW1-114" value="FinishTime" style="text;strokeColor=none;fillColor=none;spacingLeft=4;spacingRight=4;overflow=hidden;rotatable=0;points=[[0,0.5],[1,0.5]];portConstraint=eastwest;fontSize=12;whiteSpace=wrap;html=1;" vertex="1" parent="yVZragank8YAukpn6mW1-110">
          <mxGeometry y="116" width="160" height="30" as="geometry" />
        </mxCell>
        <mxCell id="yVZragank8YAukpn6mW1-116" value="" style="edgeStyle=entityRelationEdgeStyle;fontSize=12;html=1;endArrow=ERoneToMany;rounded=0;exitX=-0.012;exitY=0.096;exitDx=0;exitDy=0;exitPerimeter=0;entryX=1.05;entryY=0.25;entryDx=0;entryDy=0;entryPerimeter=0;" edge="1" parent="1" source="yVZragank8YAukpn6mW1-110" target="yVZragank8YAukpn6mW1-107">
          <mxGeometry width="100" height="100" relative="1" as="geometry">
            <mxPoint x="310" y="1130" as="sourcePoint" />
            <mxPoint x="410" y="1030" as="targetPoint" />
          </mxGeometry>
        </mxCell>
      </root>
    </mxGraphModel>
  </diagram>
</mxfile>
